<?xml version="1.0" standalone="no"?>
<!DOCTYPE svg PUBLIC "-//W3C//DTD SVG 20010904//EN"
 "http://www.w3.org/TR/2001/REC-SVG-20010904/DTD/svg10.dtd">
<svg version="1.0" xmlns="http://www.w3.org/2000/svg"
 width="260.000000pt" height="260.000000pt" viewBox="0 0 260.000000 260.000000"
 preserveAspectRatio="xMidYMid meet">
<metadata>
Created by potrace 1.14, written by Peter Selinger 2001-2017
</metadata>
<g transform="translate(0.000000,260.000000) scale(0.100000,-0.100000)"
fill="#000000" stroke="none">
<path d="M383 2586 c-181 -44 -334 -202 -372 -384 -15 -74 -15 -1730 0 -1804
39 -187 200 -348 387 -387 74 -15 1730 -15 1804 0 187 39 348 200 387 387 15
74 15 1730 0 1804 -39 187 -200 348 -387 387 -80 17 -1749 14 -1819 -3z m209
-962 c149 -52 248 -225 219 -381 -53 -279 -387 -386 -585 -188 -194 194 -93
529 175 585 52 10 136 4 191 -16z m848 -10 c74 -33 142 -103 176 -178 57 -127
28 -279 -74 -379 -138 -135 -346 -135 -484 0 -135 132 -137 345 -5 481 104
107 253 136 387 76z m775 21 c161 -42 261 -173 259 -340 -2 -174 -115 -304
-292 -337 -50 -9 -72 -8 -129 6 -131 32 -225 123 -258 251 -19 74 -19 96 0
170 32 122 125 217 245 249 72 19 103 19 175 1z"/>
</g>
</svg>
